<svg width="1024" height="1024" viewBox="0 0 543 543" fill="none" xmlns="http://www.w3.org/2000/svg">
<path d="M40 120C40 75.8172 75.8172 40 120 40H423C467.183 40 503 75.8172 503 120V423C503 467.183 467.183 503 423 503H120C75.8172 503 40 467.183 40 423V120Z" fill="#141414"/>
<path d="M104.539 204.375C153.938 173.009 385 145.971 437.19 251.313" stroke="#6C63FF" stroke-width="20" stroke-linecap="round"/>
<path d="M262 374.28C230.253 373.396 178.271 361.552 128 321.247C177.587 275.666 316.314 196.628 390.289 269.765C467.605 346.206 348.474 380.522 321.426 374.28C237.073 368.093 260.551 273.518 321.426 278.821C382.301 284.124 362.664 347.764 321.426 331.854" stroke="#6C63FF" stroke-width="22" stroke-linecap="round"/>
</svg>
